<svg width="347" height="251" viewBox="0 0 347 251" fill="none" xmlns="http://www.w3.org/2000/svg">
<path d="M109 222C122.807 222 134 210.807 134 197C134 183.193 122.807 172 109 172C95.1929 172 84 183.193 84 197C84 210.807 95.1929 222 109 222Z" fill="#007AFF" fill-opacity="0.15"/>
<path fill-rule="evenodd" clip-rule="evenodd" d="M109 173C95.7452 173 85 183.745 85 197C85 210.255 95.7452 221 109 221C122.255 221 133 210.255 133 197C133 183.745 122.255 173 109 173ZM83 197C83 182.641 94.6406 171 109 171C123.359 171 135 182.641 135 197C135 211.359 123.359 223 109 223C94.6406 223 83 211.359 83 197Z" fill="#007AFF"/>
<path fill-rule="evenodd" clip-rule="evenodd" d="M173 173C159.745 173 149 183.745 149 197C149 210.255 159.745 221 173 221C186.255 221 197 210.255 197 197C197 183.745 186.255 173 173 173ZM147 197C147 182.641 158.641 171 173 171C187.359 171 199 182.641 199 197C199 211.359 187.359 223 173 223C158.641 223 147 211.359 147 197Z" fill="#007AFF"/>
<path fill-rule="evenodd" clip-rule="evenodd" d="M164.566 187.008C163.254 186.928 161.959 187.34 160.935 188.164C160.908 188.186 160.879 188.206 160.85 188.225C159.751 188.934 158.954 190.026 158.614 191.288C158.47 191.822 157.921 192.137 157.388 191.994C156.854 191.85 156.539 191.301 156.682 190.768C157.147 189.043 158.23 187.551 159.722 186.573C161.128 185.459 162.897 184.903 164.688 185.012C165.239 185.045 165.659 185.52 165.625 186.071C165.592 186.622 165.117 187.042 164.566 187.008Z" fill="#007AFF"/>
<path fill-rule="evenodd" clip-rule="evenodd" d="M179.01 190.041C182.18 188.284 186.129 188.828 188.707 191.376C189.1 191.764 189.103 192.397 188.715 192.79C188.327 193.183 187.694 193.186 187.301 192.798C185.355 190.874 182.372 190.464 179.98 191.791C179.497 192.058 178.888 191.884 178.62 191.401C178.353 190.918 178.527 190.309 179.01 190.041Z" fill="#007AFF"/>
<path fill-rule="evenodd" clip-rule="evenodd" d="M165.885 205.769C166.012 205.769 166.134 205.793 166.246 205.836C166.62 205.981 166.885 206.344 166.885 206.769C166.885 207.122 166.926 207.46 167.008 207.783C167.201 208.539 167.621 209.202 168.265 209.729C169.201 210.495 170.695 211.04 172.848 211.04C175.002 211.04 176.488 210.497 177.415 209.734C177.923 209.316 178.289 208.812 178.514 208.243C178.693 207.79 178.783 207.295 178.783 206.769C178.783 206.407 178.976 206.089 179.265 205.914C179.416 205.822 179.593 205.769 179.783 205.769C180.335 205.769 180.783 206.217 180.783 206.769C180.783 208.518 180.086 210.126 178.686 211.278C177.303 212.416 175.321 213.04 172.848 213.04C170.375 213.04 168.388 212.414 166.998 211.277C165.592 210.126 164.885 208.519 164.885 206.769C164.885 206.217 165.333 205.769 165.885 205.769Z" fill="#007AFF"/>
<path fill-rule="evenodd" clip-rule="evenodd" d="M181.115 194.938C181.139 194.938 181.162 194.938 181.186 194.939C182.379 195.003 183.535 195.374 184.542 196.019C185.007 196.316 185.143 196.935 184.845 197.4C184.548 197.865 183.929 198.001 183.464 197.703C182.759 197.252 181.95 196.989 181.115 196.939C180.172 196.961 179.244 197.19 178.397 197.609C177.902 197.854 177.302 197.652 177.057 197.157C176.812 196.662 177.014 196.062 177.509 195.817C178.631 195.261 179.863 194.961 181.115 194.938Z" fill="#007AFF"/>
<path d="M167.579 196.309C167.579 197.69 166.46 198.809 165.079 198.809C163.698 198.809 162.579 197.69 162.579 196.309C162.579 194.928 163.698 193.809 165.079 193.809C166.46 193.809 167.579 194.928 167.579 196.309Z" fill="#007AFF"/>
<path fill-rule="evenodd" clip-rule="evenodd" d="M165.079 194.309C163.974 194.309 163.079 195.204 163.079 196.309C163.079 197.414 163.974 198.309 165.079 198.309C166.184 198.309 167.079 197.414 167.079 196.309C167.079 195.204 166.184 194.309 165.079 194.309ZM162.079 196.309C162.079 194.652 163.422 193.309 165.079 193.309C166.736 193.309 168.079 194.652 168.079 196.309C168.079 197.966 166.736 199.309 165.079 199.309C163.422 199.309 162.079 197.966 162.079 196.309Z" fill="#007AFF"/>
<path d="M237 222C250.807 222 262 210.807 262 197C262 183.193 250.807 172 237 172C223.193 172 212 183.193 212 197C212 210.807 223.193 222 237 222Z" fill="#007AFF" fill-opacity="0.15"/>
<path fill-rule="evenodd" clip-rule="evenodd" d="M237 173C223.745 173 213 183.745 213 197C213 210.255 223.745 221 237 221C250.255 221 261 210.255 261 197C261 183.745 250.255 173 237 173ZM211 197C211 182.641 222.641 171 237 171C251.359 171 263 182.641 263 197C263 211.359 251.359 223 237 223C222.641 223 211 211.359 211 197Z" fill="#007AFF"/>
<path d="M236.778 204.681C235.672 204.681 234.612 205.12 233.83 205.902C233.048 206.684 232.609 207.744 232.609 208.85C232.609 209.955 233.049 211.016 233.83 211.797C234.612 212.579 235.672 213.018 236.778 213.018C237.884 213.018 238.944 212.579 239.726 211.797C240.507 211.016 240.947 209.955 240.947 208.85C240.947 207.744 240.507 206.684 239.726 205.902C238.944 205.12 237.884 204.681 236.778 204.681Z" fill="#007AFF"/>
<path fill-rule="evenodd" clip-rule="evenodd" d="M232.942 205.014C233.96 203.997 235.339 203.426 236.778 203.426C238.217 203.426 239.596 203.997 240.614 205.014C241.629 206.031 242.202 207.41 242.202 208.85C242.202 210.288 241.63 211.668 240.614 212.685C239.596 213.702 238.217 214.273 236.778 214.273C235.339 214.273 233.96 213.702 232.942 212.685C231.926 211.668 231.354 210.288 231.354 208.85C231.354 207.411 231.925 206.032 232.942 205.014ZM236.778 205.936C236.005 205.936 235.264 206.243 234.718 206.79C234.171 207.336 233.864 208.077 233.864 208.85C233.864 209.622 234.172 210.364 234.718 210.909C235.264 211.456 236.005 211.763 236.778 211.763C237.551 211.763 238.292 211.456 238.838 210.909C239.384 210.364 239.692 209.622 239.692 208.85C239.692 208.078 239.384 207.336 238.838 206.789M236.778 205.936C237.551 205.936 238.291 206.243 238.838 206.789Z" fill="#007AFF"/>
<path fill-rule="evenodd" clip-rule="evenodd" d="M247.759 187.447C246.568 187.447 245.427 187.92 244.585 188.762C243.743 189.605 243.27 190.746 243.27 191.937C243.27 192.489 242.822 192.937 242.27 192.937C241.718 192.937 241.27 192.489 241.27 191.937C241.27 190.216 241.953 188.565 243.171 187.348C244.387 186.132 246.038 185.447 247.759 185.447C249.481 185.447 251.131 186.132 252.348 187.348C253.564 188.565 254.249 190.215 254.249 191.937C254.249 192.489 253.801 192.937 253.249 192.937C252.697 192.937 252.249 192.489 252.249 191.937C252.249 190.747 251.776 189.605 250.934 188.762C250.091 187.92 248.949 187.447 247.759 187.447Z" fill="#007AFF"/>
<path fill-rule="evenodd" clip-rule="evenodd" d="M247.76 191.107C247.539 191.107 247.328 191.194 247.174 191.349L247.173 191.35C247.017 191.506 246.93 191.717 246.93 191.937C246.93 192.489 246.482 192.937 245.93 192.937C245.378 192.937 244.93 192.489 244.93 191.937C244.93 191.186 245.228 190.467 245.758 189.936C246.29 189.403 247.011 189.107 247.76 189.107C248.51 189.107 249.23 189.404 249.762 189.936C250.292 190.467 250.59 191.186 250.59 191.937C250.59 192.489 250.142 192.937 249.59 192.937C249.038 192.937 248.59 192.489 248.59 191.937C248.59 191.716 248.503 191.506 248.347 191.35L248.346 191.349C248.192 191.194 247.982 191.107 247.76 191.107Z" fill="#007AFF"/>
<path d="M243.27 191.938C243.271 191.386 242.823 190.938 242.271 190.937C241.719 190.936 241.271 191.384 241.27 191.936C241.269 193.028 241.484 194.11 241.901 195.118C242.318 196.128 242.931 197.045 243.702 197.817C244.473 198.59 245.39 199.202 246.399 199.621C247.407 200.039 248.488 200.255 249.58 200.256H249.589C250.141 200.256 250.589 199.808 250.589 199.256C250.589 198.704 250.141 198.256 249.589 198.256H249.582C248.752 198.255 247.931 198.091 247.165 197.773C246.398 197.455 245.703 196.99 245.118 196.404L245.117 196.403C244.531 195.817 244.066 195.12 243.749 194.354C243.432 193.588 243.269 192.766 243.27 191.938Z" fill="#007AFF"/>
<path d="M254.249 191.912C254.235 191.36 253.776 190.924 253.224 190.937C252.672 190.951 252.235 191.489 252.249 192.041C252.243 192.391 252.169 192.736 252.03 193.053L252.029 193.056C251.891 193.376 251.69 193.666 251.439 193.91C250.932 194.4 250.251 194.669 249.545 194.657C248.841 194.646 248.168 194.354 247.677 193.846C247.435 193.596 247.244 193.3 247.116 192.976L247.116 192.974C246.987 192.649 246.924 192.302 246.93 191.954C246.939 191.401 246.499 190.946 245.947 190.937C245.394 190.928 244.939 191.368 244.93 191.92C244.92 192.532 245.031 193.14 245.256 193.709C245.48 194.279 245.815 194.798 246.241 195.238C247.1 196.126 248.278 196.637 249.513 196.657C250.749 196.677 251.942 196.206 252.83 195.347L252.832 195.345C253.269 194.92 253.62 194.414 253.864 193.853C254.109 193.292 254.238 192.688 254.249 192.079C254.25 192.023 254.25 191.967 254.249 191.912Z" fill="#007AFF"/>
<path fill-rule="evenodd" clip-rule="evenodd" d="M225.805 187.447C224.615 187.447 223.473 187.92 222.63 188.762C221.788 189.605 221.315 190.747 221.315 191.937C221.315 192.489 220.867 192.937 220.315 192.937C219.763 192.937 219.315 192.489 219.315 191.937C219.315 190.215 220 188.565 221.216 187.348C222.433 186.132 224.083 185.447 225.805 185.447C227.526 185.447 229.177 186.132 230.393 187.348C231.611 188.565 232.294 190.216 232.294 191.937C232.294 192.489 231.846 192.937 231.294 192.937C230.742 192.937 230.294 192.489 230.294 191.937C230.294 190.746 229.821 189.605 228.979 188.762C228.137 187.92 226.995 187.447 225.805 187.447Z" fill="#007AFF"/>
<path fill-rule="evenodd" clip-rule="evenodd" d="M225.805 191.107C225.584 191.107 225.373 191.194 225.219 191.349L225.218 191.35C225.062 191.506 224.975 191.716 224.975 191.937C224.975 192.489 224.527 192.937 223.975 192.937C223.423 192.937 222.975 192.489 222.975 191.937C222.975 191.186 223.273 190.467 223.803 189.936C224.335 189.403 225.056 189.107 225.805 189.107C226.554 189.107 227.275 189.403 227.807 189.936C228.337 190.467 228.635 191.186 228.635 191.937C228.635 192.489 228.187 192.937 227.635 192.937C227.083 192.937 226.635 192.489 226.635 191.937C226.635 191.716 226.548 191.506 226.392 191.35L226.391 191.349C226.237 191.194 226.026 191.107 225.805 191.107Z" fill="#007AFF"/>
<path fill-rule="evenodd" clip-rule="evenodd" d="M220.315 190.937C220.867 190.937 221.315 191.385 221.315 191.937C221.315 192.766 221.478 193.588 221.795 194.354C222.112 195.121 222.577 195.817 223.162 196.403C223.748 196.99 224.444 197.456 225.21 197.773C225.976 198.091 226.798 198.255 227.627 198.256H227.635C228.187 198.256 228.635 198.704 228.635 199.256C228.635 199.808 228.187 200.256 227.635 200.256H227.625C226.534 200.255 225.452 200.039 224.444 199.621C223.436 199.202 222.519 198.59 221.747 197.817M220.315 190.937C219.763 190.937 219.315 191.385 219.315 191.937ZM219.315 191.937C219.315 193.028 219.53 194.11 219.947 195.118ZM219.947 195.118C220.364 196.127 220.975 197.044 221.747 197.817Z" fill="#007AFF"/>
<path d="M221.315 191.937C221.315 191.385 220.867 190.937 220.315 190.937C219.763 190.937 219.315 191.385 219.315 191.937C219.315 193.028 219.53 194.11 219.947 195.118C220.364 196.127 220.975 197.044 221.747 197.817C222.519 198.59 223.436 199.202 224.444 199.621C225.452 200.039 226.534 200.255 227.625 200.256H227.635C228.187 200.256 228.635 199.808 228.635 199.256C228.635 198.704 228.187 198.256 227.635 198.256H227.627C226.798 198.255 225.976 198.091 225.21 197.773C224.444 197.456 223.748 196.99 223.162 196.403C222.577 195.817 222.112 195.121 221.795 194.354C221.478 193.588 221.315 192.766 221.315 191.937Z" fill="#007AFF"/>
<path d="M232.294 191.911C232.279 191.359 231.82 190.923 231.268 190.937C230.716 190.952 230.28 191.411 230.294 191.963C230.283 192.669 229.992 193.414 229.486 193.904C228.98 194.395 228.299 194.665 227.593 194.654C226.888 194.642 226.216 194.352 225.724 193.845C225.482 193.595 225.29 193.297 225.161 192.972C225.033 192.649 224.97 192.302 224.975 191.952C224.983 191.399 224.542 190.945 223.99 190.937C223.437 190.929 222.983 191.37 222.975 191.922C222.966 192.532 223.077 193.141 223.303 193.71C223.528 194.278 223.863 194.798 224.288 195.237C225.149 196.124 226.326 196.634 227.561 196.654L227.562 196.654C228.797 196.673 229.991 196.201 230.878 195.34C231.765 194.481 232.273 193.306 232.294 192.072C232.295 192.018 232.295 191.964 232.294 191.911Z" fill="#007AFF"/>
<path d="M122.725 207.13C123.311 205.706 123.607 204.18 123.595 202.64L123.405 202.71C109.315 206.23 94.5151 202.64 94.5151 202.64H94.4051C94.3943 204.134 94.6763 205.615 95.2351 207C97.0051 211.33 101.625 214.36 109.035 214.36C116.375 214.36 120.935 211.4 122.725 207.13Z" fill="white"/>
<path fill-rule="evenodd" clip-rule="evenodd" d="M124.595 202.632C124.592 202.307 124.432 202.003 124.164 201.818C123.896 201.632 123.555 201.589 123.249 201.702L123.11 201.753C123.031 201.772 122.953 201.792 122.874 201.811C116.066 203.463 109.086 203.445 103.76 202.999C101.064 202.773 98.8038 202.438 97.2203 202.161C96.4287 202.022 95.807 201.898 95.3852 201.809C95.1743 201.764 95.0135 201.729 94.9065 201.704C94.853 201.692 94.813 201.683 94.7869 201.677L94.7582 201.67L94.7518 201.668L94.7506 201.668C94.6735 201.649 94.5944 201.64 94.5151 201.64H94.4051C93.8556 201.64 93.4091 202.083 93.4051 202.633C93.3934 204.257 93.7 205.868 94.3077 207.374L94.3095 207.378C96.2776 212.193 101.351 215.36 109.035 215.36C116.646 215.36 121.656 212.266 123.647 207.517L123.65 207.511C124.286 205.964 124.608 204.306 124.595 202.632ZM95.4678 203.868C95.5721 204.812 95.805 205.739 96.1616 206.624C97.7341 210.468 101.9 213.36 109.035 213.36C116.102 213.36 120.211 210.535 121.801 206.747C122.171 205.848 122.414 204.906 122.525 203.946C115.698 205.473 108.827 205.43 103.593 204.992C100.827 204.76 98.507 204.417 96.8752 204.131C96.325 204.035 95.8528 203.945 95.4678 203.868Z" fill="#007AFF"/>
<path d="M100.375 189.596C99.2669 189.596 98.183 189.918 97.2548 190.521C96.3258 191.125 95.592 191.985 95.1422 192.998C94.9181 193.503 95.1456 194.094 95.6504 194.318C96.1551 194.542 96.746 194.315 96.9702 193.81C97.2628 193.151 97.7402 192.591 98.3444 192.199C98.9493 191.806 99.6549 191.596 100.375 191.596C101.096 191.596 101.801 191.806 102.406 192.199C103.01 192.591 103.488 193.151 103.78 193.81C104.004 194.314 104.595 194.542 105.1 194.318C105.604 194.094 105.832 193.503 105.608 192.998C105.158 191.985 104.424 191.125 103.496 190.521C102.567 189.918 101.484 189.596 100.375 189.596Z" fill="#007AFF"/>
<path fill-rule="evenodd" clip-rule="evenodd" d="M114.505 190.521C115.433 189.918 116.517 189.596 117.625 189.596C118.734 189.596 119.817 189.918 120.746 190.521C121.674 191.125 122.408 191.985 122.858 192.998C123.082 193.503 122.854 194.094 122.35 194.318C121.845 194.542 121.254 194.314 121.03 193.81C120.738 193.151 120.26 192.591 119.656 192.199M114.505 190.521C113.576 191.125 112.842 191.985 112.392 192.998C112.168 193.503 112.396 194.094 112.9 194.318C113.405 194.542 113.996 194.314 114.22 193.81C114.512 193.151 114.99 192.591 115.595 192.199C116.199 191.806 116.905 191.596 117.625 191.596C118.346 191.596 119.051 191.806 119.656 192.199" fill="#007AFF"/>
<path fill-rule="evenodd" clip-rule="evenodd" d="M197 52C197.552 52 198 52.4477 198 53V65C198 68.8657 201.134 72 205 72H229C233.97 72 238 76.0297 238 81V93C238 93.5523 237.552 94 237 94C236.448 94 236 93.5523 236 93V81C236 77.1343 232.866 74 229 74H205C200.03 74 196 69.9703 196 65V53C196 52.4477 196.448 52 197 52Z" fill="#34C759" fill-opacity="0.15"/>
<path fill-rule="evenodd" clip-rule="evenodd" d="M197 51.5C197.828 51.5 198.5 52.1716 198.5 53V65C198.5 68.5896 201.41 71.5 205 71.5H217C217.828 71.5 218.5 72.1716 218.5 73C218.5 73.8284 217.828 74.5 217 74.5H205C199.754 74.5 195.5 70.2464 195.5 65V53C195.5 52.1716 196.172 51.5 197 51.5Z" fill="#34C759"/>
<path d="M237.707 159.707C237.317 160.098 236.683 160.098 236.293 159.707L229.929 153.343C229.538 152.953 229.538 152.319 229.929 151.929C230.319 151.538 230.953 151.538 231.343 151.929L237 157.586L242.657 151.929C243.047 151.538 243.681 151.538 244.071 151.929C244.462 152.319 244.462 152.953 244.071 153.343L237.707 159.707ZM236 127C236 126.448 236.448 126 237 126C237.552 126 238 126.448 238 127H236ZM238 127V159H236V127H238Z" fill="#34C759" fill-opacity="0.15"/>
<path d="M174.061 160.061C173.475 160.646 172.525 160.646 171.939 160.061L162.393 150.515C161.808 149.929 161.808 148.979 162.393 148.393C162.979 147.808 163.929 147.808 164.515 148.393L173 156.879L181.485 148.393C182.071 147.808 183.021 147.808 183.607 148.393C184.192 148.979 184.192 149.929 183.607 150.515L174.061 160.061ZM171.5 127C171.5 126.172 172.172 125.5 173 125.5C173.828 125.5 174.5 126.172 174.5 127H171.5ZM174.5 127V159H171.5V127H174.5Z" fill="#34C759"/>
<path fill-rule="evenodd" clip-rule="evenodd" d="M173 51.5C173.828 51.5 174.5 52.1716 174.5 53V93C174.5 93.8284 173.828 94.5 173 94.5C172.172 94.5 171.5 93.8284 171.5 93V53C171.5 52.1716 172.172 51.5 173 51.5Z" fill="#34C759"/>
<path d="M110.061 160.061C109.475 160.646 108.525 160.646 107.939 160.061L98.3934 150.515C97.8076 149.929 97.8076 148.979 98.3934 148.393C98.9792 147.808 99.9289 147.808 100.515 148.393L109 156.879L117.485 148.393C118.071 147.808 119.021 147.808 119.607 148.393C120.192 148.979 120.192 149.929 119.607 150.515L110.061 160.061ZM107.5 127C107.5 126.172 108.172 125.5 109 125.5C109.828 125.5 110.5 126.172 110.5 127H107.5ZM110.5 127V159H107.5V127H110.5Z" fill="#34C759"/>
<path fill-rule="evenodd" clip-rule="evenodd" d="M149 51.5C149.828 51.5 150.5 52.1716 150.5 53V65C150.5 70.2464 146.246 74.5 141 74.5H117C113.41 74.5 110.5 77.4104 110.5 81V93C110.5 93.8284 109.828 94.5 109 94.5C108.172 94.5 107.5 93.8284 107.5 93V81C107.5 75.7536 111.754 71.5 117 71.5H141C144.59 71.5 147.5 68.5896 147.5 65V53C147.5 52.1716 148.172 51.5 149 51.5Z" fill="#34C759"/>
<path d="M223.372 117V115.572L227.159 111.86C227.522 111.494 227.823 111.169 228.065 110.885C228.306 110.601 228.487 110.326 228.608 110.059C228.729 109.793 228.789 109.509 228.789 109.207C228.789 108.863 228.711 108.568 228.555 108.323C228.399 108.074 228.184 107.882 227.91 107.748C227.637 107.613 227.326 107.545 226.978 107.545C226.62 107.545 226.305 107.62 226.035 107.769C225.766 107.914 225.556 108.122 225.407 108.392C225.261 108.662 225.188 108.983 225.188 109.356H223.308C223.308 108.664 223.466 108.062 223.782 107.55C224.098 107.039 224.533 106.643 225.087 106.363C225.645 106.082 226.284 105.942 227.005 105.942C227.736 105.942 228.379 106.078 228.933 106.352C229.487 106.625 229.917 107 230.222 107.476C230.531 107.952 230.686 108.495 230.686 109.106C230.686 109.514 230.607 109.915 230.451 110.31C230.295 110.704 230.02 111.141 229.626 111.62C229.235 112.099 228.686 112.68 227.98 113.362L226.099 115.274V115.349H230.851V117H223.372ZM236.346 117.149C235.636 117.149 235 117.016 234.439 116.75C233.878 116.48 233.432 116.11 233.102 115.642C232.775 115.173 232.601 114.637 232.58 114.033H234.498C234.533 114.48 234.727 114.846 235.078 115.13C235.43 115.411 235.852 115.551 236.346 115.551C236.733 115.551 237.078 115.462 237.379 115.285C237.681 115.107 237.919 114.86 238.093 114.544C238.267 114.228 238.352 113.868 238.349 113.463C238.352 113.051 238.265 112.685 238.088 112.366C237.91 112.046 237.667 111.796 237.358 111.615C237.049 111.43 236.694 111.338 236.293 111.338C235.966 111.334 235.645 111.395 235.329 111.519C235.013 111.643 234.762 111.806 234.578 112.009L232.793 111.716L233.363 106.091H239.691V107.742H234.998L234.684 110.635H234.748C234.95 110.397 235.236 110.2 235.606 110.043C235.975 109.884 236.38 109.804 236.82 109.804C237.481 109.804 238.07 109.96 238.589 110.272C239.107 110.581 239.515 111.007 239.814 111.551C240.112 112.094 240.261 112.716 240.261 113.415C240.261 114.136 240.094 114.779 239.76 115.343C239.43 115.904 238.97 116.347 238.381 116.67C237.795 116.989 237.117 117.149 236.346 117.149ZM247.743 114.955V114.379C247.743 113.957 247.832 113.568 248.01 113.213C248.191 112.858 248.454 112.572 248.798 112.355C249.143 112.138 249.56 112.03 250.05 112.03C250.554 112.03 250.977 112.138 251.318 112.355C251.659 112.568 251.916 112.852 252.09 113.207C252.268 113.562 252.356 113.953 252.356 114.379V114.955C252.356 115.377 252.268 115.766 252.09 116.121C251.912 116.476 251.651 116.762 251.307 116.979C250.966 117.195 250.547 117.304 250.05 117.304C249.553 117.304 249.132 117.195 248.787 116.979C248.443 116.762 248.182 116.476 248.004 116.121C247.83 115.766 247.743 115.377 247.743 114.955ZM249.134 114.379V114.955C249.134 115.235 249.201 115.493 249.336 115.727C249.471 115.961 249.709 116.078 250.05 116.078C250.394 116.078 250.63 115.963 250.758 115.732C250.89 115.498 250.955 115.239 250.955 114.955V114.379C250.955 114.095 250.893 113.836 250.769 113.602C250.645 113.364 250.405 113.245 250.05 113.245C249.716 113.245 249.48 113.364 249.341 113.602C249.203 113.836 249.134 114.095 249.134 114.379ZM242.198 108.712V108.136C242.198 107.71 242.289 107.32 242.47 106.964C242.651 106.609 242.914 106.325 243.258 106.112C243.603 105.896 244.02 105.787 244.51 105.787C245.011 105.787 245.432 105.896 245.772 106.112C246.117 106.325 246.376 106.609 246.55 106.964C246.724 107.32 246.811 107.71 246.811 108.136V108.712C246.811 109.138 246.722 109.528 246.545 109.884C246.371 110.235 246.112 110.517 245.767 110.73C245.423 110.944 245.004 111.05 244.51 111.05C244.009 111.05 243.587 110.944 243.242 110.73C242.901 110.517 242.642 110.233 242.465 109.878C242.287 109.523 242.198 109.134 242.198 108.712ZM243.599 108.136V108.712C243.599 108.996 243.665 109.255 243.796 109.489C243.931 109.72 244.169 109.836 244.51 109.836C244.851 109.836 245.085 109.72 245.213 109.489C245.345 109.255 245.41 108.996 245.41 108.712V108.136C245.41 107.852 245.348 107.593 245.224 107.359C245.1 107.121 244.862 107.002 244.51 107.002C244.173 107.002 243.937 107.121 243.802 107.359C243.667 107.597 243.599 107.856 243.599 108.136ZM242.806 117L250.306 106.091H251.637L244.137 117H242.806Z" fill="#34C759"/>
<path d="M94.372 117V115.572L98.1593 111.86C98.5215 111.494 98.8234 111.169 99.0649 110.885C99.3063 110.601 99.4875 110.326 99.6082 110.059C99.7289 109.793 99.7893 109.509 99.7893 109.207C99.7893 108.863 99.7112 108.568 99.5549 108.323C99.3987 108.074 99.1838 107.882 98.9104 107.748C98.637 107.613 98.3262 107.545 97.9782 107.545C97.6196 107.545 97.3053 107.62 97.0354 107.769C96.7655 107.914 96.556 108.122 96.4068 108.392C96.2612 108.662 96.1884 108.983 96.1884 109.356H94.3081C94.3081 108.664 94.4661 108.062 94.7822 107.55C95.0982 107.039 95.5333 106.643 96.0872 106.363C96.6448 106.082 97.284 105.942 98.0049 105.942C98.7364 105.942 99.3791 106.078 99.9331 106.352C100.487 106.625 100.917 107 101.222 107.476C101.531 107.952 101.686 108.495 101.686 109.106C101.686 109.514 101.607 109.915 101.451 110.31C101.295 110.704 101.02 111.141 100.626 111.62C100.235 112.099 99.6863 112.68 98.9796 113.362L97.0993 115.274V115.349H101.851V117H94.372ZM107.346 117.149C106.636 117.149 106 117.016 105.439 116.75C104.878 116.48 104.432 116.11 104.102 115.642C103.775 115.173 103.601 114.637 103.58 114.033H105.498C105.533 114.48 105.727 114.846 106.078 115.13C106.43 115.411 106.852 115.551 107.346 115.551C107.733 115.551 108.078 115.462 108.379 115.285C108.681 115.107 108.919 114.86 109.093 114.544C109.267 114.228 109.352 113.868 109.349 113.463C109.352 113.051 109.265 112.685 109.088 112.366C108.91 112.046 108.667 111.796 108.358 111.615C108.049 111.43 107.694 111.338 107.293 111.338C106.966 111.334 106.645 111.395 106.329 111.519C106.013 111.643 105.762 111.806 105.578 112.009L103.793 111.716L104.363 106.091H110.691V107.742H105.998L105.684 110.635H105.748C105.95 110.397 106.236 110.2 106.606 110.043C106.975 109.884 107.38 109.804 107.82 109.804C108.481 109.804 109.07 109.96 109.589 110.272C110.107 110.581 110.515 111.007 110.814 111.551C111.112 112.094 111.261 112.716 111.261 113.415C111.261 114.136 111.094 114.779 110.76 115.343C110.43 115.904 109.97 116.347 109.381 116.67C108.795 116.989 108.117 117.149 107.346 117.149ZM118.743 114.955V114.379C118.743 113.957 118.832 113.568 119.01 113.213C119.191 112.858 119.454 112.572 119.798 112.355C120.143 112.138 120.56 112.03 121.05 112.03C121.554 112.03 121.977 112.138 122.318 112.355C122.659 112.568 122.916 112.852 123.09 113.207C123.268 113.562 123.356 113.953 123.356 114.379V114.955C123.356 115.377 123.268 115.766 123.09 116.121C122.912 116.476 122.651 116.762 122.307 116.979C121.966 117.195 121.547 117.304 121.05 117.304C120.553 117.304 120.132 117.195 119.787 116.979C119.443 116.762 119.182 116.476 119.004 116.121C118.83 115.766 118.743 115.377 118.743 114.955ZM120.134 114.379V114.955C120.134 115.235 120.201 115.493 120.336 115.727C120.471 115.961 120.709 116.078 121.05 116.078C121.394 116.078 121.63 115.963 121.758 115.732C121.89 115.498 121.955 115.239 121.955 114.955V114.379C121.955 114.095 121.893 113.836 121.769 113.602C121.645 113.364 121.405 113.245 121.05 113.245C120.716 113.245 120.48 113.364 120.341 113.602C120.203 113.836 120.134 114.095 120.134 114.379ZM113.198 108.712V108.136C113.198 107.71 113.289 107.32 113.47 106.964C113.651 106.609 113.914 106.325 114.258 106.112C114.603 105.896 115.02 105.787 115.51 105.787C116.011 105.787 116.432 105.896 116.772 106.112C117.117 106.325 117.376 106.609 117.55 106.964C117.724 107.32 117.811 107.71 117.811 108.136V108.712C117.811 109.138 117.722 109.528 117.545 109.884C117.371 110.235 117.112 110.517 116.767 110.73C116.423 110.944 116.004 111.05 115.51 111.05C115.009 111.05 114.587 110.944 114.242 110.73C113.901 110.517 113.642 110.233 113.465 109.878C113.287 109.523 113.198 109.134 113.198 108.712ZM114.599 108.136V108.712C114.599 108.996 114.665 109.255 114.796 109.489C114.931 109.72 115.169 109.836 115.51 109.836C115.851 109.836 116.085 109.72 116.213 109.489C116.345 109.255 116.41 108.996 116.41 108.712V108.136C116.41 107.852 116.348 107.593 116.224 107.359C116.1 107.121 115.862 107.002 115.51 107.002C115.173 107.002 114.937 107.121 114.802 107.359C114.667 107.597 114.599 107.856 114.599 108.136ZM113.806 117L121.306 106.091H122.637L115.137 117H113.806Z" fill="#34C759"/>
<path d="M163.82 117.149C163.11 117.149 162.475 117.016 161.913 116.75C161.352 116.48 160.907 116.11 160.576 115.642C160.25 115.173 160.076 114.637 160.054 114.033H161.972C162.008 114.48 162.201 114.846 162.553 115.13C162.904 115.411 163.327 115.551 163.82 115.551C164.207 115.551 164.552 115.462 164.854 115.285C165.156 115.107 165.394 114.86 165.568 114.544C165.742 114.228 165.827 113.868 165.823 113.463C165.827 113.051 165.74 112.685 165.562 112.366C165.385 112.046 165.141 111.796 164.832 111.615C164.524 111.43 164.168 111.338 163.767 111.338C163.44 111.334 163.119 111.395 162.803 111.519C162.487 111.643 162.237 111.806 162.052 112.009L160.268 111.716L160.837 106.091H167.166V107.742H162.473L162.158 110.635H162.222C162.425 110.397 162.711 110.2 163.08 110.043C163.449 109.884 163.854 109.804 164.294 109.804C164.955 109.804 165.544 109.96 166.063 110.272C166.581 110.581 166.99 111.007 167.288 111.551C167.586 112.094 167.736 112.716 167.736 113.415C167.736 114.136 167.569 114.779 167.235 115.343C166.905 115.904 166.445 116.347 165.855 116.67C165.269 116.989 164.591 117.149 163.82 117.149ZM173.417 117.208C172.54 117.208 171.787 116.986 171.159 116.542C170.534 116.094 170.053 115.45 169.715 114.608C169.381 113.763 169.215 112.746 169.215 111.556C169.218 110.366 169.387 109.354 169.721 108.52C170.058 107.682 170.539 107.043 171.164 106.602C171.793 106.162 172.544 105.942 173.417 105.942C174.291 105.942 175.042 106.162 175.67 106.602C176.299 107.043 176.78 107.682 177.114 108.52C177.451 109.358 177.62 110.37 177.62 111.556C177.62 112.749 177.451 113.768 177.114 114.614C176.78 115.455 176.299 116.098 175.67 116.542C175.045 116.986 174.294 117.208 173.417 117.208ZM173.417 115.54C174.099 115.54 174.637 115.205 175.031 114.534C175.429 113.859 175.628 112.866 175.628 111.556C175.628 110.69 175.537 109.962 175.356 109.372C175.175 108.783 174.919 108.339 174.589 108.04C174.259 107.739 173.868 107.588 173.417 107.588C172.739 107.588 172.203 107.925 171.809 108.6C171.414 109.271 171.216 110.256 171.212 111.556C171.208 112.426 171.295 113.158 171.473 113.751C171.654 114.344 171.91 114.791 172.24 115.093C172.57 115.391 172.963 115.54 173.417 115.54ZM185.088 114.955V114.379C185.088 113.957 185.176 113.568 185.354 113.213C185.535 112.858 185.798 112.572 186.142 112.355C186.487 112.138 186.904 112.03 187.394 112.03C187.898 112.03 188.321 112.138 188.662 112.355C189.003 112.568 189.26 112.852 189.434 113.207C189.612 113.562 189.701 113.953 189.701 114.379V114.955C189.701 115.377 189.612 115.766 189.434 116.121C189.257 116.476 188.996 116.762 188.651 116.979C188.31 117.195 187.891 117.304 187.394 117.304C186.897 117.304 186.476 117.195 186.132 116.979C185.787 116.762 185.526 116.476 185.349 116.121C185.175 115.766 185.088 115.377 185.088 114.955ZM186.478 114.379V114.955C186.478 115.235 186.545 115.493 186.68 115.727C186.815 115.961 187.053 116.078 187.394 116.078C187.739 116.078 187.975 115.963 188.103 115.732C188.234 115.498 188.3 115.239 188.3 114.955V114.379C188.3 114.095 188.237 113.836 188.113 113.602C187.989 113.364 187.749 113.245 187.394 113.245C187.06 113.245 186.824 113.364 186.686 113.602C186.547 113.836 186.478 114.095 186.478 114.379ZM179.543 108.712V108.136C179.543 107.71 179.633 107.32 179.814 106.964C179.995 106.609 180.258 106.325 180.603 106.112C180.947 105.896 181.364 105.787 181.854 105.787C182.355 105.787 182.776 105.896 183.117 106.112C183.461 106.325 183.72 106.609 183.894 106.964C184.068 107.32 184.155 107.71 184.155 108.136V108.712C184.155 109.138 184.067 109.528 183.889 109.884C183.715 110.235 183.456 110.517 183.111 110.73C182.767 110.944 182.348 111.05 181.854 111.05C181.354 111.05 180.931 110.944 180.587 110.73C180.246 110.517 179.986 110.233 179.809 109.878C179.631 109.523 179.543 109.134 179.543 108.712ZM180.943 108.136V108.712C180.943 108.996 181.009 109.255 181.141 109.489C181.275 109.72 181.513 109.836 181.854 109.836C182.195 109.836 182.43 109.72 182.557 109.489C182.689 109.255 182.755 108.996 182.755 108.712V108.136C182.755 107.852 182.692 107.593 182.568 107.359C182.444 107.121 182.206 107.002 181.854 107.002C181.517 107.002 181.281 107.121 181.146 107.359C181.011 107.597 180.943 107.856 180.943 108.136ZM180.15 117L187.65 106.091H188.981L181.481 117H180.15Z" fill="#34C759"/>
<path d="M191 192C198.18 192 204 186.18 204 179C204 171.82 198.18 166 191 166C183.82 166 178 171.82 178 179C178 186.18 183.82 192 191 192Z" fill="white"/>
<path d="M191 192C198.18 192 204 186.18 204 179C204 171.82 198.18 166 191 166C183.82 166 178 171.82 178 179C178 186.18 183.82 192 191 192Z" fill="#34C759" fill-opacity="0.15"/>
<path fill-rule="evenodd" clip-rule="evenodd" d="M191 167C184.373 167 179 172.373 179 179C179 185.627 184.373 191 191 191C197.627 191 203 185.627 203 179C203 172.373 197.627 167 191 167ZM177 179C177 171.268 183.268 165 191 165C198.732 165 205 171.268 205 179C205 186.732 198.732 193 191 193C183.268 193 177 186.732 177 179Z" fill="white"/>
<path fill-rule="evenodd" clip-rule="evenodd" d="M196.374 174.96C196.765 175.35 196.765 175.984 196.374 176.374L189.707 183.04C189.317 183.431 188.684 183.431 188.293 183.04L185.626 180.374C185.235 179.984 185.235 179.351 185.626 178.96C186.016 178.569 186.649 178.569 187.04 178.96L189 180.919L194.96 174.96C195.351 174.569 195.984 174.569 196.374 174.96Z" fill="#34C759"/>
<path d="M127 192C134.18 192 140 186.18 140 179C140 171.82 134.18 166 127 166C119.82 166 114 171.82 114 179C114 186.18 119.82 192 127 192Z" fill="white"/>
<path d="M127 192C134.18 192 140 186.18 140 179C140 171.82 134.18 166 127 166C119.82 166 114 171.82 114 179C114 186.18 119.82 192 127 192Z" fill="#34C759" fill-opacity="0.15"/>
<path fill-rule="evenodd" clip-rule="evenodd" d="M127 167C120.373 167 115 172.373 115 179C115 185.627 120.373 191 127 191C133.627 191 139 185.627 139 179C139 172.373 133.627 167 127 167ZM113 179C113 171.268 119.268 165 127 165C134.732 165 141 171.268 141 179C141 186.732 134.732 193 127 193C119.268 193 113 186.732 113 179Z" fill="white"/>
<path fill-rule="evenodd" clip-rule="evenodd" d="M132.374 174.96C132.765 175.35 132.765 175.984 132.374 176.374L125.707 183.04C125.317 183.431 124.684 183.431 124.293 183.04L121.626 180.374C121.235 179.984 121.235 179.351 121.626 178.96C122.016 178.569 122.649 178.569 123.04 178.96L125 180.919L130.96 174.96C131.351 174.569 131.984 174.569 132.374 174.96Z" fill="#34C759"/>
<path d="M167.396 206.156C167.03 206.062 166.745 205.977 166.553 205.918C166.501 205.902 166.366 205.867 166.246 205.836C166.62 205.981 166.885 206.344 166.885 206.769C166.885 207.122 166.926 207.46 167.008 207.783C167.948 208.258 169.272 208.601 170.179 208.713C172.485 208.999 175.469 209.056 178.514 208.243C178.693 207.79 178.783 207.295 178.783 206.769C178.783 206.407 178.976 206.089 179.265 205.914C176.141 207.043 172.913 207.036 170.424 206.728C169.175 206.574 168.128 206.345 167.396 206.156Z" fill="#007AFF"/>
<path fill-rule="evenodd" clip-rule="evenodd" d="M173 222C186.807 222 198 210.807 198 197C198 183.193 186.807 172 173 172C159.193 172 148 183.193 148 197C148 210.807 159.193 222 173 222ZM166.246 205.836C166.62 205.981 166.885 206.344 166.885 206.769C166.885 207.122 166.926 207.46 167.008 207.783C167.201 208.539 167.621 209.202 168.265 209.729C169.201 210.495 170.695 211.04 172.848 211.04C175.002 211.04 176.488 210.497 177.415 209.734C177.923 209.316 178.289 208.812 178.514 208.243C178.693 207.79 178.783 207.295 178.783 206.769C178.783 206.407 178.976 206.089 179.265 205.914C176.141 207.043 172.913 207.036 170.424 206.728C169.175 206.574 168.128 206.345 167.396 206.156C167.03 206.062 166.745 205.977 166.553 205.918C166.501 205.902 166.366 205.867 166.246 205.836Z" fill="#007AFF" fill-opacity="0.15"/>
<path d="M168.265 209.729C169.201 210.495 170.695 211.04 172.848 211.04C175.002 211.04 176.488 210.497 177.415 209.734C177.923 209.316 178.289 208.812 178.514 208.243C175.469 209.056 172.485 208.999 170.179 208.713C169.272 208.601 167.948 208.258 167.008 207.783C167.201 208.539 167.621 209.202 168.265 209.729Z" fill="white"/>
</svg>