<svg viewBox="0 0 24 24" xmlns="http://www.w3.org/2000/svg">
<path d="M3.30615 11.3185C8.40641 8.91938 11.8074 7.33777 13.5091 6.57361C18.3677 4.39178 19.3773 4.01277 20.0354 4.00012C20.1801 3.9975 20.5037 4.03623 20.7133 4.21986C20.8903 4.37492 20.939 4.58438 20.9623 4.73139C20.9856 4.8784 21.0146 5.2133 20.9916 5.47498C20.7283 8.46174 19.589 15.7098 19.0094 19.055C18.7642 20.4705 18.2813 20.9451 17.8138 20.9916C16.7978 21.0925 16.0263 20.2667 15.0422 19.5702C13.5024 18.4805 12.6325 17.8021 11.1378 16.7387C9.4105 15.5097 10.5303 14.8343 11.5147 13.7304C11.7723 13.4415 16.2488 9.04555 16.3354 8.64677C16.3463 8.59689 16.3563 8.41098 16.254 8.31282C16.1517 8.21465 16.0007 8.24822 15.8918 8.27492C15.7373 8.31276 13.2775 10.0681 8.51212 13.5411C7.81389 14.0587 7.18145 14.3109 6.61481 14.2977C5.99014 14.2831 4.78851 13.9164 3.89523 13.6029C2.79958 13.2184 1.92878 13.0151 2.0046 12.362C2.0441 12.0219 2.47795 11.674 3.30615 11.3185Z"/>
</svg>